<svg width="54" height="54" viewBox="0 0 54 54" fill="none" xmlns="http://www.w3.org/2000/svg">
<path fill-rule="evenodd" clip-rule="evenodd" d="M44.9865 37.1206V16.8931L26.9977 6.76807V27.0046L9.01123 37.1251L27.0045 47.2501L44.9752 37.1363L44.9865 37.1431V37.1318L44.9932 37.1273L44.9865 37.1206Z" fill="#FF6723"/>
<path d="M27.009 6.75L45 16.8728L39.375 20.5268L21.375 9.93825L27.009 6.75Z" fill="#FF6723"/>
<path d="M39.375 19.9595V26.8063L21.375 16.6003V9.92676L39.375 19.9595Z" fill="#FF6723"/>
<path d="M21.3704 16.6006L39.3749 26.7796L32.6249 30.5866L14.6294 20.3986L21.3704 16.6006Z" fill="#FF6723"/>
<path d="M32.6205 30.584V37.3948L14.625 26.8873V20.3848L32.6205 30.584Z" fill="#FF6723"/>
<path d="M14.625 26.8853L32.625 37.305L27 40.5L9 30.375L14.625 26.8853Z" fill="#FF6723"/>
<path d="M27 40.5V47.25L9 37.1183V30.3683L27 40.5ZM39.3795 19.9913L45 16.9155V37.161L39.3795 40.284V19.9913ZM32.6205 30.5865L39.3728 26.766V40.2885L32.6182 44.0595L32.6205 30.5865Z" fill="#FF6723"/>
<path d="M26.9998 40.4978L32.6181 37.2983V44.1001L26.9976 47.2501L26.9998 40.4978Z" fill="#FF6723"/>
</svg>
