<svg width="24" height="24" viewBox="0 0 24 24" fill="none" xmlns="http://www.w3.org/2000/svg">
<path fill-rule="evenodd" clip-rule="evenodd" d="M13.3104 16.6564C13.0991 16.8764 12.8126 17 12.5138 17C12.2151 17 11.9286 16.8764 11.7173 16.6564L5.34395 10.0177C5.23634 9.90941 5.15051 9.77991 5.09147 9.63673C5.03242 9.49356 5.00134 9.33956 5.00004 9.18374C4.99874 9.02792 5.02725 8.87339 5.0839 8.72916C5.14054 8.58494 5.2242 8.45391 5.32998 8.34372C5.43577 8.23354 5.56156 8.1464 5.70002 8.08739C5.83848 8.02838 5.98683 7.99869 6.13642 8.00004C6.28602 8.0014 6.43385 8.03377 6.57131 8.09528C6.70876 8.15678 6.83308 8.24618 6.93701 8.35827L12.5138 14.1673L18.0907 8.35827C18.3032 8.1445 18.5878 8.02621 18.8832 8.02889C19.1786 8.03156 19.4611 8.15498 19.67 8.37256C19.8789 8.59015 19.9974 8.88449 20 9.19219C20.0025 9.49989 19.889 9.79633 19.6837 10.0177L13.3104 16.6564Z" fill="white"/>
</svg>
