<svg width="54" height="54" viewBox="0 0 54 54" fill="none" xmlns="http://www.w3.org/2000/svg">
<path d="M18.2248 27.0002C20.5521 27.0002 22.784 26.0757 24.4297 24.4301C26.0753 22.7844 26.9998 20.5525 26.9998 18.2252C26.9998 15.8979 26.0753 13.666 24.4297 12.0203C22.784 10.3747 20.5521 9.4502 18.2248 9.4502C15.8975 9.4502 13.6656 10.3747 12.0199 12.0203C10.3743 13.666 9.4498 15.8979 9.4498 18.2252C9.4498 20.5525 10.3743 22.7844 12.0199 24.4301C13.6656 26.0757 15.8975 27.0002 18.2248 27.0002ZM33.5797 40.8917C35.0107 41.4776 36.8305 41.8502 39.1471 41.8502C49.9471 41.8502 49.9471 33.7502 49.9471 33.7502C49.9471 32.6765 49.5208 31.6468 48.7618 30.8874C48.0029 30.1279 46.9735 29.7009 45.8998 29.7002H33.4042C34.4653 30.9854 35.1025 32.6297 35.1025 34.4252V35.3864C35.0968 35.6137 35.0815 35.8407 35.0566 36.0668C34.8728 37.7534 34.3699 39.3903 33.5797 40.8917ZM45.8998 20.2502C45.8998 22.0404 45.1886 23.7573 43.9228 25.0232C42.6569 26.289 40.94 27.0002 39.1498 27.0002C37.3596 27.0002 35.6427 26.289 34.3768 25.0232C33.111 23.7573 32.3998 22.0404 32.3998 20.2502C32.3998 18.46 33.111 16.7431 34.3768 15.4772C35.6427 14.2114 37.3596 13.5002 39.1498 13.5002C40.94 13.5002 42.6569 14.2114 43.9228 15.4772C45.1886 16.7431 45.8998 18.46 45.8998 20.2502ZM4.0498 35.1002C4.0498 33.668 4.61873 32.2945 5.63143 31.2818C6.64412 30.2691 8.01764 29.7002 9.4498 29.7002H26.9998C28.432 29.7002 29.8055 30.2691 30.8182 31.2818C31.8309 32.2945 32.3998 33.668 32.3998 35.1002C32.3998 35.1002 32.3998 45.9002 18.2248 45.9002C4.0498 45.9002 4.0498 35.1002 4.0498 35.1002Z" fill="#FF6723"/>
</svg>
