<svg width="54" height="54" viewBox="0 0 54 54" fill="none" xmlns="http://www.w3.org/2000/svg">
<path d="M8.4375 6.75C7.09484 6.75 5.80718 7.28337 4.85777 8.23277C3.90837 9.18217 3.375 10.4698 3.375 11.8125V40.5H50.625V11.8125C50.625 10.4698 50.0916 9.18217 49.1422 8.23277C48.1928 7.28337 46.9052 6.75 45.5625 6.75H8.4375ZM0 42.1875H54C54 43.5302 53.4666 44.8178 52.5172 45.7672C51.5678 46.7166 50.2802 47.25 48.9375 47.25H5.0625C3.71984 47.25 2.43217 46.7166 1.48277 45.7672C0.533369 44.8178 0 43.5302 0 42.1875Z" fill="#FF6723"/>
</svg>
