<svg width="54" height="54" viewBox="0 0 54 54" fill="none" xmlns="http://www.w3.org/2000/svg">
<path d="M16.8842 27.7873C17.5817 26.3923 18.3415 25.0483 19.1635 23.7553C19.987 22.4623 20.8945 21.1985 21.886 19.964L18.4322 19.2598C18.2012 19.2013 17.9777 19.2088 17.7617 19.2823C17.5457 19.3558 17.3507 19.478 17.1767 19.649L11.7182 25.1098C11.6312 25.1953 11.602 25.2958 11.6305 25.4113C11.659 25.5268 11.731 25.6138 11.8465 25.6723L16.8842 27.7873ZM42.6557 10.9775C39.1937 11.225 36.145 11.9863 33.5095 13.2613C30.874 14.5363 28.3952 16.3348 26.0732 18.6568C24.4142 20.3188 22.966 22.0498 21.7285 23.8498C20.491 25.6498 19.471 27.4385 18.6685 29.216L25.0382 35.5723C26.8157 34.7698 28.6112 33.7498 30.4247 32.5123C32.2382 31.2748 33.9767 29.825 35.6402 28.163C37.9622 25.841 39.7607 23.372 41.0357 20.756C42.3107 18.14 43.072 15.101 43.3195 11.639C43.3195 11.5475 43.3127 11.4628 43.2992 11.3848C43.2857 11.3068 43.2377 11.2258 43.1552 11.1418C43.0727 11.0578 42.9917 11.0098 42.9122 10.9978C42.8327 10.9858 42.748 10.9783 42.658 10.9753M30.6295 23.6563C29.9695 22.9948 29.6395 22.202 29.6395 21.278C29.6395 20.354 29.9695 19.5613 30.6295 18.8998C31.2895 18.2383 32.0845 17.9083 33.0145 17.9098C33.9445 17.9113 34.7387 18.2413 35.3972 18.8998C36.0557 19.5583 36.3857 20.351 36.3872 21.278C36.3887 22.205 36.0587 22.997 35.3972 23.654C34.7357 24.311 33.9407 24.641 33.0122 24.644C32.0837 24.647 31.2887 24.317 30.6272 23.654M26.4647 37.397L28.582 42.4483C28.6405 42.5623 28.7267 42.6268 28.8407 42.6418C28.9547 42.6568 29.056 42.6208 29.1445 42.5338L34.6052 37.1158C34.7777 36.9433 34.9 36.7483 34.972 36.5308C35.0455 36.3148 35.053 36.092 34.9945 35.8625L34.2902 32.4088C33.0557 33.4018 31.792 34.307 30.499 35.1245C29.206 35.942 27.8597 36.6995 26.4647 37.397ZM45.4727 10.649C45.4547 14.399 44.7437 17.858 43.3397 21.026C41.9357 24.194 39.841 27.17 37.0555 29.954C36.9115 30.098 36.7742 30.2278 36.6437 30.3433C36.5132 30.4588 36.3767 30.5885 36.2342 30.7325L37.186 35.3945C37.306 36.0005 37.276 36.5878 37.096 37.1563C36.9145 37.7233 36.604 38.2258 36.1645 38.6638L29.8982 44.93C29.4512 45.377 28.906 45.542 28.2625 45.425C27.6205 45.3095 27.178 44.9488 26.935 44.3428L24.2395 37.9865L16.2655 29.9675L9.9092 27.272C9.3032 27.0305 8.94695 26.588 8.84045 25.9445C8.73395 25.301 8.9042 24.7558 9.3512 24.3088L15.6152 18.0425C16.0532 17.6045 16.5587 17.3023 17.1317 17.1358C17.7032 16.9678 18.292 16.9445 18.898 17.066L23.5577 18.0178C23.7017 17.8738 23.8247 17.744 23.9267 17.6285C24.0272 17.513 24.1495 17.3833 24.2935 17.2393C27.0775 14.4553 30.0535 12.3538 33.2215 10.9348C36.3895 9.5158 39.8492 8.7973 43.6007 8.7793C43.8422 8.7883 44.077 8.8363 44.305 8.9233C44.533 9.0103 44.7452 9.1528 44.9417 9.3508C45.1382 9.5488 45.2732 9.75355 45.3467 9.96505C45.4202 10.1765 45.4607 10.4045 45.4682 10.649M11.5135 36.3755C12.394 35.4965 13.4635 35.0615 14.722 35.0705C15.9805 35.0795 17.05 35.525 17.9305 36.407C18.811 37.289 19.249 38.3585 19.2445 39.6155C19.24 40.8755 18.7975 41.945 17.917 42.824C16.666 44.075 15.1945 44.8625 13.5025 45.1865C11.8105 45.509 10.102 45.7528 8.37695 45.9178C8.54195 44.1628 8.7932 42.4468 9.1307 40.7698C9.4682 39.0928 10.261 37.628 11.5135 36.3755ZM13.12 38.0113C12.4525 38.6788 11.9897 39.4625 11.7317 40.3625C11.4737 41.2625 11.284 42.1955 11.1625 43.1615C12.13 43.04 13.0637 42.845 13.9637 42.5765C14.8637 42.308 15.6467 41.8408 16.3127 41.1748C16.7627 40.7248 16.9922 40.1885 17.0012 39.566C17.0087 38.942 16.7875 38.405 16.3375 37.955C15.8875 37.505 15.3512 37.2898 14.7287 37.3093C14.1062 37.3273 13.57 37.5613 13.12 38.0113Z" fill="#FF6723"/>
</svg>
