<svg width="1741" height="1741" viewBox="0 0 1741 1741" fill="none" xmlns="http://www.w3.org/2000/svg">
<rect width="1741" height="1741" fill="black"/>
<path d="M996.123 396C1073.8 414.246 1144.47 450.769 1203.27 500.797C1214.29 510.154 1224.89 520.009 1235.06 530.302C1236.25 531.549 1237.47 532.766 1238.62 534.014C1240.55 536.01 1242.49 538.037 1244.36 540.064C1255.84 552.259 1266.67 565.078 1276.77 578.396C1287.63 592.587 1297.68 607.371 1306.91 622.716C1340.6 678.514 1363.6 741.454 1373.05 808.792C1373.2 809.821 1373.36 810.851 1373.48 811.88C1375.86 829.252 1377.29 846.937 1377.73 864.84C1377.88 869.362 1377.95 873.885 1377.95 878.438C1377.95 890.29 1377.54 902.049 1376.67 913.683C1376.39 918.33 1375.98 922.946 1375.54 927.562C1356.51 1120.9 1226.33 1281.62 1049.75 1345C1110.46 1243.2 1137.98 1141.27 1141.97 1039.22C1142.1 1036.57 1142.22 1033.95 1142.22 1031.3C1142.63 1017.92 1142.59 1004.51 1142.16 991.095C1141.81 979.336 1141.16 967.609 1140.22 955.851C1139.76 949.956 1139.22 944.061 1138.6 938.197C1137.07 923.07 1135.08 907.943 1132.67 892.816L1078.58 963.991L1057.18 992.155L1020.74 1040.12L979.37 1094.55L973.537 1102.22L932.357 1156.43C920.471 1172.12 901.908 1181.29 882.254 1181.29C872.396 1181.29 862.849 1178.98 854.27 1174.74C845.691 1170.5 838.079 1164.26 832.12 1156.43L825.569 1147.79L822.792 1144.14L797.116 1110.36L775.965 1082.54L764.111 1066.95L631.834 892.816C621.04 960.466 618.544 1028.05 627.186 1095.58C627.81 1100.51 628.496 1105.4 629.244 1110.3C630.96 1121.93 633.082 1133.57 635.546 1145.2C638.447 1159.11 641.879 1173.05 645.841 1186.96C646.184 1188.18 646.528 1189.4 646.903 1190.64C661.877 1242.14 684.089 1293.57 714.756 1345C638.011 1317.46 570.032 1271.55 516.155 1212.54C514.969 1211.26 513.815 1209.98 512.692 1208.67C499.776 1194.26 487.703 1179.07 476.597 1163.23C466.208 1148.54 456.661 1133.29 447.957 1117.47C447.333 1116.35 446.71 1115.2 446.086 1114.08C415.981 1058.5 396.17 996.49 389.307 930.618C387.497 913.464 386.562 896.06 386.562 878.438C386.562 877.721 386.562 876.972 386.593 876.255C386.624 859.912 387.497 843.725 389.151 827.756C389.182 827.35 389.244 826.913 389.276 826.508C389.744 821.767 390.305 817.057 390.96 812.348C392.832 798.313 395.296 784.433 398.323 770.804C439.284 585.57 583.977 439.322 768.384 396C717.689 443.127 684.619 520.851 684.619 608.743C684.619 618.88 685.056 628.891 685.93 638.716C686.991 651.004 688.706 663.013 691.015 674.709C691.077 675.052 691.14 675.426 691.234 675.77C691.577 677.516 691.951 679.231 692.325 680.978C695.008 693.266 698.378 705.181 702.371 716.659C705.865 726.796 709.858 736.62 714.32 746.008C749.167 819.896 811.343 869.051 882.254 869.051C983.458 869.051 1066.88 768.87 1078.48 639.684C1079.42 629.547 1079.89 619.223 1079.89 608.743C1079.89 607.433 1079.89 606.155 1079.86 604.876C1079.7 590.56 1078.67 576.493 1076.8 562.832C1076.8 562.801 1076.8 562.739 1076.77 562.708C1076.64 561.492 1076.49 560.275 1076.27 559.059C1074.55 547.3 1072.24 535.822 1069.34 524.688C1055.77 472.258 1029.85 427.345 996.123 396Z" fill="url(#paint0_linear_445_849)"/>
<path d="M881.7 1181.98C871.842 1181.98 861.452 1178.51 852.873 1174.27C841.636 1173.47 808.564 1129.67 808.387 1124.28L1036.76 1019.79L933.915 1155.96C922.028 1171.65 901.354 1181.98 881.7 1181.98Z" fill="url(#paint1_linear_445_849)"/>
<path d="M1377.1 927.092C1358.07 1120.44 1227.89 1281.16 1051.31 1344.53C1109.07 1247.68 1134.64 1059.18 1140.64 962.099L1373.06 804.592C1376.45 804.6 1380.99 925.087 1377.1 927.092Z" fill="url(#paint2_linear_445_849)"/>
<path d="M716.989 1344.16C641.321 1319.81 568.642 1275.02 515.767 1215.42C566.622 1204.37 594.932 1197.53 643.675 1180.41C658.51 1227.51 688.935 1297.11 716.989 1344.16Z" fill="url(#paint3_linear_445_849)"/>
<g filter="url(#filter0_f_445_849)">
<path d="M459.792 930.838C455.195 826.454 501.523 634.045 657.521 488.459C414.473 598.348 424.432 829.165 459.792 930.838Z" fill="url(#paint4_linear_445_849)"/>
</g>
<g filter="url(#filter1_f_445_849)">
<path d="M669.96 723.491C684.823 773.036 737.837 855.436 834.489 898.082C702.961 886.303 670 776.78 669.96 723.491Z" fill="url(#paint5_linear_445_849)"/>
</g>
<g filter="url(#filter2_d_445_849)">
<path d="M1245.16 522.004C1434.87 474.31 1516.88 490.94 1549.71 556.636C1585.01 627.364 1477.71 730.602 1300.15 858.775C1264.46 884.544 1225.61 910.439 1184.02 936.072C1117.37 977.167 1043.69 1017.56 964.94 1055.59C837.89 1116.92 713.987 1164.1 603.746 1195.39C582.577 1201.4 561.891 1206.83 541.794 1211.62C359.952 1255.25 225.463 1249.77 193.533 1185.88C189.663 1177.97 139.051 1109.94 326.399 957.429L338.88 949.633L326.401 958.99C159.948 1113.02 200.246 1146.37 223 1177.53C274.939 1220.98 373.91 1245.67 538.951 1208.1C559.405 1203.45 580.548 1198.07 602.309 1192.06C711.17 1161.81 834.728 1114.56 961.468 1052.21C1035.04 1016.01 1103.94 977.585 1166.5 938.451C1214.19 908.603 1258.19 878.347 1297.75 848.363C1457.43 727.38 1551.68 634.2 1518.7 566.901C1487.97 504.169 1430.26 477.117 1256.46 519.21L1245.16 522.004Z" fill="#E85B35"/>
</g>
<defs>
<filter id="filter0_f_445_849" x="420.97" y="468.459" width="256.551" height="482.378" filterUnits="userSpaceOnUse" color-interpolation-filters="sRGB">
<feFlood flood-opacity="0" result="BackgroundImageFix"/>
<feBlend mode="normal" in="SourceGraphic" in2="BackgroundImageFix" result="shape"/>
<feGaussianBlur stdDeviation="10" result="effect1_foregroundBlur_445_849"/>
</filter>
<filter id="filter1_f_445_849" x="654.96" y="708.491" width="194.529" height="204.592" filterUnits="userSpaceOnUse" color-interpolation-filters="sRGB">
<feFlood flood-opacity="0" result="BackgroundImageFix"/>
<feBlend mode="normal" in="SourceGraphic" in2="BackgroundImageFix" result="shape"/>
<feGaussianBlur stdDeviation="7.5" result="effect1_foregroundBlur_445_849"/>
</filter>
<filter id="filter2_d_445_849" x="159.858" y="471.048" width="1419.15" height="792.473" filterUnits="userSpaceOnUse" color-interpolation-filters="sRGB">
<feFlood flood-opacity="0" result="BackgroundImageFix"/>
<feColorMatrix in="SourceAlpha" type="matrix" values="0 0 0 0 0 0 0 0 0 0 0 0 0 0 0 0 0 0 127 0" result="hardAlpha"/>
<feOffset dx="-1"/>
<feGaussianBlur stdDeviation="11.8"/>
<feComposite in2="hardAlpha" operator="out"/>
<feColorMatrix type="matrix" values="0 0 0 0 0.909804 0 0 0 0 0.356863 0 0 0 0 0.207843 0 0 0 1 0"/>
<feBlend mode="normal" in2="BackgroundImageFix" result="effect1_dropShadow_445_849"/>
<feBlend mode="normal" in="SourceGraphic" in2="effect1_dropShadow_445_849" result="shape"/>
</filter>
<linearGradient id="paint0_linear_445_849" x1="726.611" y1="870.08" x2="1322.38" y2="762.425" gradientUnits="userSpaceOnUse">
<stop stop-color="#E85B35"/>
<stop offset="0.646088" stop-color="#903519"/>
<stop offset="1" stop-color="#5D1F09"/>
</linearGradient>
<linearGradient id="paint1_linear_445_849" x1="1007.12" y1="987.04" x2="1095.68" y2="1367.72" gradientUnits="userSpaceOnUse">
<stop offset="0.0527846" stop-color="#5D1C07"/>
<stop offset="0.298077" stop-color="#8E3317"/>
<stop offset="0.543269" stop-color="#A13B1D"/>
<stop offset="1" stop-color="#E85B35"/>
</linearGradient>
<linearGradient id="paint2_linear_445_849" x1="1007.12" y1="987.04" x2="1095.68" y2="1367.72" gradientUnits="userSpaceOnUse">
<stop offset="0.0527846" stop-color="#5D1C07"/>
<stop offset="0.298077" stop-color="#8E3317"/>
<stop offset="0.543269" stop-color="#A13B1D"/>
<stop offset="1" stop-color="#E85B35"/>
</linearGradient>
<linearGradient id="paint3_linear_445_849" x1="1007.12" y1="987.04" x2="1095.68" y2="1367.72" gradientUnits="userSpaceOnUse">
<stop offset="0.0527846" stop-color="#5D1C07"/>
<stop offset="0.298077" stop-color="#8E3317"/>
<stop offset="0.543269" stop-color="#A13B1D"/>
<stop offset="1" stop-color="#E85B35"/>
</linearGradient>
<linearGradient id="paint4_linear_445_849" x1="412.258" y1="907.77" x2="623.711" y2="472.051" gradientUnits="userSpaceOnUse">
<stop stop-color="#FF8000" stop-opacity="0.57"/>
<stop offset="1" stop-color="#FCE850"/>
</linearGradient>
<linearGradient id="paint5_linear_445_849" x1="651.498" y1="742.017" x2="821.348" y2="911.269" gradientUnits="userSpaceOnUse">
<stop stop-color="#FF8000" stop-opacity="0.57"/>
<stop offset="1" stop-color="#FCE850"/>
</linearGradient>
</defs>
</svg>
