<svg width="1505" height="949" viewBox="0 0 1505 949" fill="none" xmlns="http://www.w3.org/2000/svg">
<path d="M878.123 0C955.804 18.2458 1026.47 54.769 1085.27 104.797C1096.29 114.154 1106.89 124.009 1117.06 134.302C1118.25 135.549 1119.47 136.766 1120.62 138.014C1122.55 140.01 1124.49 142.037 1126.36 144.064C1137.84 156.259 1148.67 169.078 1158.77 182.396C1169.63 196.587 1179.68 211.371 1188.91 226.716C1222.6 282.514 1245.6 345.454 1255.05 412.792C1255.2 413.821 1255.36 414.851 1255.48 415.88C1257.86 433.252 1259.29 450.937 1259.73 468.84C1259.88 473.362 1259.95 477.885 1259.95 482.438C1259.95 494.29 1259.54 506.049 1258.67 517.683C1258.39 522.33 1257.98 526.946 1257.54 531.562C1238.51 724.905 1108.33 885.624 931.751 949.001C992.461 847.199 1019.98 745.272 1023.97 643.22C1024.1 640.569 1024.22 637.949 1024.22 635.298C1024.63 621.918 1024.59 608.506 1024.16 595.095C1023.81 583.336 1023.16 571.609 1022.22 559.851C1021.76 553.956 1021.22 548.061 1020.6 542.197C1019.07 527.07 1017.08 511.943 1014.67 496.816L960.578 567.991L939.177 596.155L902.739 644.125L861.37 698.55L855.537 706.223L814.357 760.43C802.471 776.118 783.908 785.288 764.254 785.288C754.396 785.288 744.849 782.98 736.27 778.738C727.691 774.497 720.079 768.258 714.12 760.43L707.569 751.79L704.792 748.142L679.116 714.363L657.965 686.542L646.111 670.947L513.834 496.816C503.04 564.466 500.544 632.054 509.186 699.579C509.81 704.507 510.496 709.404 511.244 714.301C512.96 725.934 515.082 737.568 517.546 749.202C520.447 763.113 523.879 777.054 527.841 790.965C528.184 792.181 528.528 793.397 528.903 794.645C543.877 846.138 566.089 897.57 596.756 949.001C520.011 921.461 452.032 875.55 398.155 816.54C396.969 815.261 395.815 813.982 394.692 812.672C381.776 798.263 369.703 783.074 358.597 767.229C348.208 752.539 338.661 737.288 329.957 721.475C329.333 720.352 328.71 719.198 328.086 718.075C297.981 662.496 278.17 600.49 271.307 534.618C269.497 517.464 268.562 500.06 268.562 482.438C268.562 481.721 268.562 480.972 268.593 480.255C268.624 463.912 269.497 447.725 271.151 431.756C271.182 431.35 271.244 430.913 271.276 430.508C271.744 425.767 272.305 421.057 272.96 416.348C274.832 402.313 277.296 388.433 280.323 374.804C321.284 189.57 465.977 43.3222 650.384 0C599.689 47.1273 566.619 124.851 566.619 212.743C566.619 222.88 567.056 232.891 567.93 242.716C568.991 255.004 570.706 267.013 573.015 278.709C573.077 279.052 573.14 279.426 573.234 279.77C573.577 281.516 573.951 283.231 574.325 284.978C577.008 297.266 580.378 309.181 584.371 320.659C587.865 330.796 591.858 340.62 596.32 350.008C631.167 423.896 693.343 473.051 764.254 473.051C865.458 473.051 948.879 372.87 960.485 243.684C961.421 233.547 961.888 223.223 961.888 212.743C961.888 211.433 961.888 210.155 961.857 208.876C961.701 194.56 960.672 180.493 958.8 166.832C958.8 166.801 958.799 166.739 958.769 166.708C958.644 165.492 958.487 164.275 958.269 163.059C956.553 151.3 954.244 139.822 951.343 128.688C937.772 76.2582 911.847 31.3453 878.123 0Z" fill="url(#paint0_linear_445_887)"/>
<path d="M763.7 785.984C753.842 785.984 743.452 782.51 734.873 778.269C723.636 777.473 690.564 733.666 690.387 728.284L918.76 623.789L815.915 759.96C804.028 775.649 783.354 785.984 763.7 785.984Z" fill="url(#paint1_linear_445_887)"/>
<path d="M1259.1 531.092C1240.07 724.436 1109.89 885.155 933.31 948.532C991.069 851.677 1016.64 663.18 1022.64 566.099L1255.06 408.592C1258.45 408.6 1262.99 529.087 1259.1 531.092Z" fill="url(#paint2_linear_445_887)"/>
<path d="M598.989 948.159C523.321 923.813 450.642 879.017 397.767 819.423C448.622 808.37 476.932 801.534 525.675 784.415C540.51 831.511 570.935 901.11 598.989 948.159Z" fill="url(#paint3_linear_445_887)"/>
<g filter="url(#filter0_f_445_887)">
<path d="M341.792 534.838C337.195 430.454 383.523 238.045 539.521 92.4594C296.473 202.348 306.432 433.165 341.792 534.838Z" fill="url(#paint4_linear_445_887)"/>
</g>
<g filter="url(#filter1_f_445_887)">
<path d="M551.96 327.491C566.823 377.036 619.837 459.436 716.489 502.082C584.961 490.303 552 380.78 551.96 327.491Z" fill="url(#paint5_linear_445_887)"/>
</g>
<g filter="url(#filter2_d_445_887)">
<path d="M1127.16 126.004C1316.87 78.3105 1398.88 94.9396 1431.71 160.636C1467.01 231.364 1359.71 334.602 1182.15 462.775C1146.46 488.544 1107.61 514.439 1066.02 540.072C999.368 581.167 925.693 621.563 846.94 659.592C719.89 720.916 595.987 768.102 485.746 799.392C464.577 805.404 443.891 810.828 423.794 815.62C241.952 859.245 107.463 853.767 75.5333 789.877C71.6626 781.973 21.0512 713.942 208.399 561.429L220.88 553.633L208.401 562.99C41.948 717.024 82.2456 750.37 105 781.527C156.939 824.978 255.91 849.669 420.951 812.097C441.405 807.448 462.548 802.073 484.309 796.063C593.17 765.814 716.728 718.564 843.468 656.208C917.037 620.012 985.94 581.585 1048.5 542.451C1096.19 512.603 1140.19 482.347 1179.75 452.363C1339.43 331.38 1433.68 238.2 1400.7 170.901C1369.97 108.169 1312.26 81.1173 1138.46 123.21L1127.16 126.004Z" fill="#E85B35"/>
</g>
<defs>
<filter id="filter0_f_445_887" x="302.97" y="72.4595" width="256.551" height="482.378" filterUnits="userSpaceOnUse" color-interpolation-filters="sRGB">
<feFlood flood-opacity="0" result="BackgroundImageFix"/>
<feBlend mode="normal" in="SourceGraphic" in2="BackgroundImageFix" result="shape"/>
<feGaussianBlur stdDeviation="10" result="effect1_foregroundBlur_445_887"/>
</filter>
<filter id="filter1_f_445_887" x="536.96" y="312.491" width="194.529" height="204.592" filterUnits="userSpaceOnUse" color-interpolation-filters="sRGB">
<feFlood flood-opacity="0" result="BackgroundImageFix"/>
<feBlend mode="normal" in="SourceGraphic" in2="BackgroundImageFix" result="shape"/>
<feGaussianBlur stdDeviation="7.5" result="effect1_foregroundBlur_445_887"/>
</filter>
<filter id="filter2_d_445_887" x="41.8579" y="75.0477" width="1419.15" height="792.473" filterUnits="userSpaceOnUse" color-interpolation-filters="sRGB">
<feFlood flood-opacity="0" result="BackgroundImageFix"/>
<feColorMatrix in="SourceAlpha" type="matrix" values="0 0 0 0 0 0 0 0 0 0 0 0 0 0 0 0 0 0 127 0" result="hardAlpha"/>
<feOffset dx="-1"/>
<feGaussianBlur stdDeviation="11.8"/>
<feComposite in2="hardAlpha" operator="out"/>
<feColorMatrix type="matrix" values="0 0 0 0 0.909804 0 0 0 0 0.356863 0 0 0 0 0.207843 0 0 0 1 0"/>
<feBlend mode="normal" in2="BackgroundImageFix" result="effect1_dropShadow_445_887"/>
<feBlend mode="normal" in="SourceGraphic" in2="effect1_dropShadow_445_887" result="shape"/>
</filter>
<linearGradient id="paint0_linear_445_887" x1="608.611" y1="474.08" x2="1204.38" y2="366.425" gradientUnits="userSpaceOnUse">
<stop stop-color="#E85B35"/>
<stop offset="0.646088" stop-color="#903519"/>
<stop offset="1" stop-color="#5D1F09"/>
</linearGradient>
<linearGradient id="paint1_linear_445_887" x1="889.122" y1="591.04" x2="977.681" y2="971.722" gradientUnits="userSpaceOnUse">
<stop offset="0.0527846" stop-color="#5D1C07"/>
<stop offset="0.298077" stop-color="#8E3317"/>
<stop offset="0.543269" stop-color="#A13B1D"/>
<stop offset="1" stop-color="#E85B35"/>
</linearGradient>
<linearGradient id="paint2_linear_445_887" x1="889.122" y1="591.04" x2="977.681" y2="971.722" gradientUnits="userSpaceOnUse">
<stop offset="0.0527846" stop-color="#5D1C07"/>
<stop offset="0.298077" stop-color="#8E3317"/>
<stop offset="0.543269" stop-color="#A13B1D"/>
<stop offset="1" stop-color="#E85B35"/>
</linearGradient>
<linearGradient id="paint3_linear_445_887" x1="889.122" y1="591.04" x2="977.681" y2="971.722" gradientUnits="userSpaceOnUse">
<stop offset="0.0527846" stop-color="#5D1C07"/>
<stop offset="0.298077" stop-color="#8E3317"/>
<stop offset="0.543269" stop-color="#A13B1D"/>
<stop offset="1" stop-color="#E85B35"/>
</linearGradient>
<linearGradient id="paint4_linear_445_887" x1="294.258" y1="511.77" x2="505.711" y2="76.0512" gradientUnits="userSpaceOnUse">
<stop stop-color="#FF8000" stop-opacity="0.57"/>
<stop offset="1" stop-color="#FCE850"/>
</linearGradient>
<linearGradient id="paint5_linear_445_887" x1="533.498" y1="346.017" x2="703.348" y2="515.269" gradientUnits="userSpaceOnUse">
<stop stop-color="#FF8000" stop-opacity="0.57"/>
<stop offset="1" stop-color="#FCE850"/>
</linearGradient>
</defs>
</svg>
