<svg width="1920" height="400" viewBox="0 0 1920 400" fill="none" xmlns="http://www.w3.org/2000/svg" xmlns:xlink="http://www.w3.org/1999/xlink">
<g clip-path="url(#clip0_763_1451)">
<rect width="1920" height="400" fill="#FF8137" fill-opacity="0.6"/>
<rect width="1920" height="400" fill="url(#pattern0_763_1451)" fill-opacity="0.2"/>
<path d="M729.98 193V135.4H742.22L762.38 159.48L782.46 135.4H794.78V193H783.18V152.6L762.38 177.48L741.5 152.68V193H729.98ZM804.359 193V135.4H857.479V147H816.039V158.36H849.399V170.04H816.039V181.4H857.479V193H804.359ZM863.886 193V135.4H876.126L896.286 159.48L916.366 135.4H928.686V193H917.086V152.6L896.286 177.48L875.406 152.68V193H863.886ZM938.345 193V135.4H982.185C984.265 135.4 986.158 135.933 987.865 137C989.625 138.013 991.038 139.4 992.105 141.16C993.172 142.867 993.705 144.787 993.705 146.92V157.96C993.705 158.653 993.652 159.32 993.545 159.96C993.438 160.547 993.278 161.133 993.065 161.72C993.918 162.84 994.612 164.067 995.145 165.4C995.678 166.68 995.945 167.987 995.945 169.32V181.48C995.945 183.613 995.412 185.56 994.345 187.32C993.278 189.027 991.865 190.413 990.105 191.48C988.398 192.493 986.478 193 984.345 193H938.345ZM950.345 181.4H983.785C983.945 181.4 984.052 181.373 984.105 181.32C984.212 181.213 984.265 181.08 984.265 180.92V169.96C984.265 169.853 984.212 169.747 984.105 169.64C984.052 169.533 983.945 169.48 983.785 169.48H950.345C950.185 169.48 950.052 169.533 949.945 169.64C949.892 169.747 949.865 169.853 949.865 169.96V180.92C949.865 181.08 949.892 181.213 949.945 181.32C950.052 181.373 950.185 181.4 950.345 181.4ZM950.345 157.88H981.545C981.652 157.88 981.758 157.853 981.865 157.8C981.972 157.693 982.025 157.587 982.025 157.48V147.48C982.025 147.32 981.972 147.213 981.865 147.16C981.758 147.053 981.652 147 981.545 147H950.345C950.185 147 950.052 147.053 949.945 147.16C949.892 147.213 949.865 147.32 949.865 147.48V157.48C949.865 157.587 949.892 157.693 949.945 157.8C950.052 157.853 950.185 157.88 950.345 157.88ZM1004.83 193V135.4H1057.95V147H1016.51V158.36H1049.87V170.04H1016.51V181.4H1057.95V193H1004.83ZM1111.2 193L1094.16 172.68H1109.28L1123.36 189.4V193H1111.2ZM1065.92 193V135.48H1111.92C1114.05 135.48 1115.97 136.013 1117.68 137.08C1119.44 138.093 1120.85 139.48 1121.92 141.24C1122.98 143 1123.52 144.92 1123.52 147V162.2C1123.52 164.28 1122.98 166.2 1121.92 167.96C1120.85 169.667 1119.44 171.053 1117.68 172.12C1115.97 173.133 1114.05 173.64 1111.92 173.64L1077.44 173.72V193H1065.92ZM1077.92 162.04H1111.36C1111.52 162.04 1111.62 162.013 1111.68 161.96C1111.78 161.853 1111.84 161.747 1111.84 161.64V147.48C1111.84 147.32 1111.78 147.213 1111.68 147.16C1111.62 147.053 1111.52 147 1111.36 147H1077.92C1077.76 147 1077.62 147.053 1077.52 147.16C1077.46 147.213 1077.44 147.32 1077.44 147.48V161.64C1077.44 161.747 1077.46 161.853 1077.52 161.96C1077.62 162.013 1077.76 162.04 1077.92 162.04ZM1143.21 193C1141.13 193 1139.21 192.493 1137.45 191.48C1135.69 190.413 1134.31 189.027 1133.29 187.32C1132.28 185.56 1131.77 183.613 1131.77 181.48V176.6H1143.29V180.92C1143.29 181.08 1143.32 181.213 1143.37 181.32C1143.48 181.373 1143.59 181.4 1143.69 181.4H1177.21C1177.32 181.4 1177.43 181.373 1177.53 181.32C1177.64 181.213 1177.69 181.08 1177.69 180.92V170.44C1177.69 170.333 1177.64 170.253 1177.53 170.2C1177.43 170.093 1177.32 170.04 1177.21 170.04H1143.21C1141.13 170.04 1139.21 169.533 1137.45 168.52C1135.69 167.453 1134.31 166.04 1133.29 164.28C1132.28 162.52 1131.77 160.6 1131.77 158.52V146.92C1131.77 144.787 1132.28 142.867 1133.29 141.16C1134.31 139.4 1135.69 138.013 1137.45 137C1139.21 135.933 1141.13 135.4 1143.21 135.4H1177.85C1179.93 135.4 1181.83 135.933 1183.53 137C1185.29 138.013 1186.71 139.4 1187.77 141.16C1188.84 142.867 1189.37 144.787 1189.37 146.92V151.8H1177.69V147.48C1177.69 147.32 1177.64 147.213 1177.53 147.16C1177.43 147.053 1177.32 147 1177.21 147H1143.69C1143.59 147 1143.48 147.053 1143.37 147.16C1143.32 147.213 1143.29 147.32 1143.29 147.48V157.96C1143.29 158.067 1143.32 158.173 1143.37 158.28C1143.48 158.333 1143.59 158.36 1143.69 158.36H1177.85C1179.93 158.36 1181.83 158.893 1183.53 159.96C1185.29 160.973 1186.71 162.36 1187.77 164.12C1188.84 165.88 1189.37 167.8 1189.37 169.88V181.48C1189.37 183.613 1188.84 185.56 1187.77 187.32C1186.71 189.027 1185.29 190.413 1183.53 191.48C1181.83 192.493 1179.93 193 1177.85 193H1143.21Z" fill="white"/>
<path d="M856.628 241.445H859.507L864.427 253.498H864.62L869.54 241.445H872.419V257H870.163V245.764H870.013L865.458 256.979H863.589L859.013 245.742H858.884V257H856.628V241.445ZM876.931 257H874.417L880.003 241.445H882.731L888.339 257H885.825L884.407 252.896H878.349L876.931 257ZM879.036 250.92H883.72L881.421 244.281H881.313L879.036 250.92ZM898.651 245.549C898.501 244.109 897.233 243.271 895.45 243.271C893.538 243.271 892.335 244.238 892.335 245.57C892.335 247.053 893.946 247.611 895.171 247.912L896.675 248.32C898.673 248.793 901.144 249.889 901.165 252.703C901.144 255.324 899.06 257.258 895.386 257.258C891.905 257.258 889.714 255.518 889.563 252.682H891.927C892.077 254.379 893.56 255.195 895.386 255.195C897.362 255.195 898.802 254.186 898.823 252.66C898.802 251.307 897.534 250.748 895.88 250.318L894.032 249.824C891.54 249.137 889.972 247.869 889.972 245.699C889.972 243.014 892.378 241.23 895.515 241.23C898.673 241.23 900.886 243.035 900.95 245.549H898.651ZM920.415 248.406V249.975H902.798V248.406H920.415ZM918.245 251.328V255.561H906.944V257.15H918.847V258.59H904.903V254.207H916.226V252.789H904.882V251.328H918.245ZM918.202 240.07V244.238H907.073V245.699H918.524V247.139H905.054V242.885H916.161V241.51H905.011V240.07H918.202ZM943.146 239.576V250.705H941.126V239.576H943.146ZM943.597 251.973V253.562H937.989C938.183 255.185 940.836 256.86 944.284 257.236L943.575 258.805C940.557 258.429 938.064 257.15 936.915 255.475C935.755 257.193 933.22 258.45 930.19 258.805L929.481 257.258C932.94 256.903 935.658 255.238 935.862 253.562H930.255V251.973H935.905V250.211H937.925V251.973H943.597ZM930.212 240.371V243.164H935.347V240.371H937.366V249.029H928.214V240.371H930.212ZM930.212 247.418H935.347V244.732H930.212V247.418ZM962.696 239.576V258.826H960.741V248.965H958.271V257.838H956.358V239.963H958.271V247.289H960.741V239.576H962.696ZM949.161 241.854V252.123C950.944 252.112 952.889 251.973 955.069 251.543L955.284 253.326C952.642 253.799 950.429 253.928 948.366 253.928H947.12V241.854H949.161ZM980.808 241.424V243.314C980.808 245.699 980.808 248.363 980.077 252.295L978.015 252.08C978.767 248.363 978.767 245.635 978.767 243.314V243.078H967.079V241.424H980.808ZM982.784 254.529V256.227H965.231V254.529H971.913V247.74H973.933V254.529H982.784ZM996.706 245.248C996.706 248.471 998.812 251.801 1001.78 253.068L1000.66 254.658C998.393 253.659 996.588 251.543 995.696 248.965C994.805 251.715 992.989 254.057 990.755 255.152L989.573 253.541C992.474 252.188 994.622 248.557 994.644 245.248V243.207H990.239V241.51H1001.09V243.207H996.706V245.248ZM1005.56 239.576V258.826H1003.52V239.576H1005.56ZM1024.01 240.543V242.004C1024.01 243.519 1024.01 245.237 1023.52 247.568H1026.25V249.244H1008.63V247.568H1021.46C1021.97 245.323 1021.99 243.68 1021.99 242.219H1010.84V240.543H1024.01ZM1024.03 251.693V258.59H1010.78V251.693H1024.03ZM1012.78 253.305V256.936H1022.01V253.305H1012.78ZM1042.94 239.576V247.396H1045.73V249.072H1042.94V258.826H1040.9V239.576H1042.94ZM1033.44 241.639C1033.44 246.451 1032.56 250.834 1029.08 254.551L1027.47 253.412C1030.29 250.49 1031.31 247.171 1031.51 243.314H1028.16V241.639H1033.44ZM1038.75 241.639C1038.75 246.516 1038.15 251.629 1034.6 255.818L1032.97 254.701C1035.83 251.36 1036.69 247.429 1036.84 243.314H1034.07V241.639H1038.75ZM1053.75 245.248C1053.75 248.471 1055.85 251.801 1058.82 253.068L1057.7 254.658C1055.43 253.659 1053.63 251.543 1052.74 248.965C1051.85 251.715 1050.03 254.057 1047.8 255.152L1046.61 253.541C1049.51 252.188 1051.66 248.557 1051.68 245.248V243.207H1047.28V241.51H1058.13V243.207H1053.75V245.248ZM1062.6 239.576V258.826H1060.56V239.576H1062.6ZM870.754 265.576V284.869H868.713V265.576H870.754ZM860.463 267.016C863.32 267.016 865.426 269.637 865.426 273.762C865.426 277.908 863.32 280.529 860.463 280.529C857.562 280.529 855.479 277.908 855.479 273.762C855.479 269.637 857.562 267.016 860.463 267.016ZM860.463 268.842C858.68 268.842 857.455 270.732 857.455 273.762C857.455 276.812 858.68 278.703 860.463 278.703C862.225 278.703 863.449 276.812 863.449 273.762C863.449 270.732 862.225 268.842 860.463 268.842ZM891.422 272.559V274.213H873.826V272.559H879.004C879.562 270.528 879.681 269.035 879.713 267.939H875.352V266.264H881.711V267.123C881.711 268.229 881.711 270.099 881.066 272.559H886.588C887.104 270.582 887.222 269.046 887.254 267.939H882.957V266.264H889.23V267.08C889.23 268.176 889.23 270.066 888.65 272.559H891.422ZM889.188 275.996V280.938H877.973V282.957H889.789V284.568H875.932V279.412H887.146V277.607H875.889V275.996H889.188ZM898.061 267.016C900.671 267.016 902.583 269.229 902.895 272.795H906.869V265.576H908.889V284.869H906.869V274.449H902.916C902.69 278.198 900.735 280.529 898.061 280.529C895.182 280.529 893.162 277.908 893.184 273.762C893.162 269.637 895.182 267.016 898.061 267.016ZM898.061 268.842C896.32 268.842 895.117 270.732 895.117 273.762C895.117 276.812 896.32 278.703 898.061 278.703C899.801 278.703 901.004 276.812 901.004 273.762C901.004 270.732 899.801 268.842 898.061 268.842ZM934.777 275.717V277.393H917.225V275.717H924.98V273.848C921.371 273.644 919.115 272.247 919.115 269.98C919.115 267.596 921.801 266.135 925.99 266.113C930.158 266.135 932.865 267.596 932.865 269.98C932.865 272.247 930.588 273.644 927 273.848V275.717H934.777ZM932.801 282.764V284.418H919.438V278.832H921.5V282.764H932.801ZM925.99 267.768C923.047 267.768 921.199 268.605 921.221 269.98C921.199 271.441 923.047 272.236 925.99 272.236C928.934 272.236 930.76 271.441 930.76 269.98C930.76 268.605 928.934 267.768 925.99 267.768ZM959.205 276.898V278.51H951.342V284.826H949.344V278.51H941.588V276.898H959.205ZM945.799 266.35V268.863H954.951V266.35H956.992V274.707H943.779V266.35H945.799ZM945.799 273.074H954.951V270.496H945.799V273.074ZM976.629 265.598V280.186H974.588V278.338H970.721V276.898H974.588V265.598H976.629ZM977.102 282.764V284.418H963.201V278.768H965.221V282.764H977.102ZM960.537 274.385C964.104 274.363 968.895 274.32 972.998 273.805L973.127 275.266C971.483 275.534 969.754 275.717 968.057 275.824V279.584H966.016V275.932C964.146 276.018 962.353 276.028 960.795 276.018L960.537 274.385ZM966.832 266.328C969.646 266.328 971.602 267.682 971.602 269.723C971.602 271.764 969.646 273.074 966.832 273.074C963.975 273.074 962.041 271.764 962.041 269.723C962.041 267.682 963.975 266.328 966.832 266.328ZM966.832 267.854C965.113 267.832 963.953 268.562 963.975 269.723C963.953 270.861 965.113 271.57 966.832 271.57C968.486 271.57 969.646 270.861 969.668 269.723C969.646 268.562 968.486 267.832 966.832 267.854ZM997.211 273.461V275.094H979.637V273.461H997.211ZM995.127 270.432V272.064H981.936V266.135H994.934V267.789H983.977V270.432H995.127ZM994.977 276.619V281.281H983.762V283H995.514V284.611H981.764V279.777H992.957V278.188H981.742V276.619H994.977ZM1019.98 265.576V275.91H1017.94V265.576H1019.98ZM1009.39 276.834V279.004H1017.96V276.834H1019.98V284.59H1007.39V276.834H1009.39ZM1009.39 282.914H1017.96V280.615H1009.39V282.914ZM1009.54 266.457C1012.49 266.457 1014.66 268.283 1014.66 270.926C1014.66 273.568 1012.49 275.395 1009.54 275.373C1006.6 275.395 1004.41 273.568 1004.41 270.926C1004.41 268.283 1006.6 266.457 1009.54 266.457ZM1009.54 268.176C1007.72 268.154 1006.41 269.293 1006.41 270.926C1006.41 272.58 1007.72 273.697 1009.54 273.697C1011.35 273.697 1012.66 272.58 1012.66 270.926C1012.66 269.293 1011.35 268.154 1009.54 268.176ZM1039.02 265.576V284.826H1036.98V265.576H1039.02ZM1026.24 267.445V278.166C1029.04 278.145 1031.99 277.919 1035.09 277.285L1035.37 279.004C1031.95 279.691 1028.86 279.928 1025.83 279.928H1024.22V267.445H1026.24ZM1057.04 265.576V273.031H1060.14V274.707H1057.04V284.869H1055V265.576H1057.04ZM1051.87 267.424V269.078H1044.91V278.381C1048.14 278.37 1050.57 278.23 1053.31 277.736L1053.56 279.455C1050.56 279.992 1048 280.1 1044.41 280.078H1042.87V267.424H1051.87ZM1063.25 283.15C1062.42 283.15 1061.71 282.463 1061.73 281.625C1061.71 280.787 1062.42 280.1 1063.25 280.1C1064.07 280.1 1064.78 280.787 1064.78 281.625C1064.78 282.463 1064.07 283.15 1063.25 283.15Z" fill="#C3C3C3"/>
<circle cx="1696" cy="342" r="164" fill="url(#paint0_radial_763_1451)" fill-opacity="0.2"/>
<circle cx="240" cy="93" r="164" fill="url(#paint1_radial_763_1451)" fill-opacity="0.2"/>
</g>
<defs>
<radialGradient id="paint0_radial_763_1451" cx="0" cy="0" r="1" gradientUnits="userSpaceOnUse" gradientTransform="translate(1695.99 342) scale(153.995 176.269)">
<stop offset="0.06" stop-color="#F39D52"/>
<stop offset="0.13" stop-color="#F29546"/>
<stop offset="0.21" stop-color="#F0852D"/>
<stop offset="0.39" stop-color="#ED6C00"/>
<stop offset="0.54" stop-color="#E66800"/>
<stop offset="0.68" stop-color="#D65E0D"/>
<stop offset="0.81" stop-color="#C35316"/>
<stop offset="1" stop-color="#8A3622"/>
</radialGradient>
<radialGradient id="paint1_radial_763_1451" cx="0" cy="0" r="1" gradientUnits="userSpaceOnUse" gradientTransform="translate(239.99 93) scale(153.995 176.269)">
<stop offset="0.06" stop-color="#F39D52"/>
<stop offset="0.13" stop-color="#F29546"/>
<stop offset="0.21" stop-color="#F0852D"/>
<stop offset="0.39" stop-color="#ED6C00"/>
<stop offset="0.54" stop-color="#E66800"/>
<stop offset="0.68" stop-color="#D65E0D"/>
<stop offset="0.81" stop-color="#C35316"/>
<stop offset="1" stop-color="#8A3622"/>
</radialGradient>
<clipPath id="clip0_763_1451">
<rect width="1920" height="400" fill="white"/>
</clipPath>
<pattern id="pattern0_763_1451" patternUnits="userSpaceOnUse" patternTransform="matrix(10.67 0 0 10.67 955.15 195.15)" preserveAspectRatio="none" viewBox="0 0 11 11" width="1" height="1">
<g id="pattern0_763_1451_inner">
<path d="M5 0L3.64955 3.64955L0 5L3.64955 6.35045L5 10L6.35045 6.35045L10 5L6.35045 3.64955L5 0Z" fill="#D9D9D9"/>
</g>
</pattern></defs>
</svg>
