<svg width="510" height="418" viewBox="0 0 510 418" fill="none" xmlns="http://www.w3.org/2000/svg">
<path d="M193.158 130.203C261.278 76.9309 329.863 37.6099 385.66 17.0854C413.565 6.8211 438.216 1.2783 457.983 1.01132C477.769 0.74408 492.463 5.7587 500.759 16.3669C509.055 26.9751 510.38 42.4442 505.352 61.583C500.329 80.7029 489.008 103.291 472.321 127.899C438.953 177.104 384.261 234.191 316.141 287.463C248.021 340.735 179.435 380.057 123.638 400.581C95.7341 410.846 71.0829 416.388 51.316 416.655C31.5295 416.923 16.8358 411.908 8.53983 401.3C0.243866 390.692 -1.08147 375.222 3.94676 356.084C8.97006 336.964 20.2908 314.375 36.978 289.768C70.3456 240.562 125.038 183.475 193.158 130.203Z" stroke="url(#paint0_linear_763_1240)" stroke-width="2"/>
<defs>
<linearGradient id="paint0_linear_763_1240" x1="230.645" y1="358.814" x2="119.433" y2="188.282" gradientUnits="userSpaceOnUse">
<stop stop-color="#9F3409" stop-opacity="0.8"/>
<stop offset="1" stop-color="#733316" stop-opacity="0"/>
</linearGradient>
</defs>
</svg>
