<svg width="618" height="729" viewBox="0 0 618 729" fill="none" xmlns="http://www.w3.org/2000/svg">
<circle cx="253.499" cy="346.986" r="184.986" fill="url(#paint0_radial_1874_1662)"/>
<circle cx="253.499" cy="346.986" r="184.986" fill="url(#paint1_linear_1874_1662)" fill-opacity="0.68"/>
<circle cx="253.499" cy="346.986" r="184.986" fill="black" fill-opacity="0.2"/>
<circle cx="253.499" cy="346.986" r="184.486" stroke="url(#paint2_linear_1874_1662)" stroke-opacity="0.3"/>
<g filter="url(#filter0_f_1874_1662)">
<path d="M406.742 318.679C369.734 235.023 278.944 203.796 238.175 198.639C283.802 185.274 297.744 181.933 334.499 198.639C373.789 220.789 371.254 228.588 406.742 318.679Z" fill="#B23E08"/>
<path d="M406.742 318.679C369.734 235.023 278.944 203.796 238.175 198.639C283.802 185.274 297.744 181.933 334.499 198.639C373.789 220.789 371.254 228.588 406.742 318.679Z" stroke="url(#paint3_linear_1874_1662)" stroke-opacity="0.3"/>
</g>
<circle cx="253.5" cy="364.5" r="285.707" stroke="#D9602A" stroke-opacity="0.5" stroke-width="2"/>
<circle cx="253.5" cy="364.5" r="363.5" stroke="#CBCBCB" stroke-opacity="0.5" stroke-width="2"/>
<defs>
<filter id="filter0_f_1874_1662" x="208.034" y="156.828" width="229.174" height="192.054" filterUnits="userSpaceOnUse" color-interpolation-filters="sRGB">
<feFlood flood-opacity="0" result="BackgroundImageFix"/>
<feBlend mode="normal" in="SourceGraphic" in2="BackgroundImageFix" result="shape"/>
<feGaussianBlur stdDeviation="15" result="effect1_foregroundBlur_1874_1662"/>
</filter>
<radialGradient id="paint0_radial_1874_1662" cx="0" cy="0" r="1" gradientUnits="userSpaceOnUse" gradientTransform="translate(244.195 279.669) rotate(26.1676) scale(246.968)">
<stop stop-color="#FF5900"/>
<stop offset="0.577708" stop-color="#90390A"/>
<stop offset="1" stop-color="#1A0A00"/>
</radialGradient>
<linearGradient id="paint1_linear_1874_1662" x1="438.486" y1="420.872" x2="22.5397" y2="229.865" gradientUnits="userSpaceOnUse">
<stop stop-color="#825252" stop-opacity="0"/>
<stop offset="1" stop-color="#FF1500" stop-opacity="0.5"/>
</linearGradient>
<linearGradient id="paint2_linear_1874_1662" x1="253.499" y1="162" x2="253.499" y2="531.973" gradientUnits="userSpaceOnUse">
<stop stop-color="#666666" stop-opacity="0"/>
<stop offset="0.9999" stop-color="#FF6E00" stop-opacity="0.35"/>
</linearGradient>
<linearGradient id="paint3_linear_1874_1662" x1="322.459" y1="187.328" x2="322.459" y2="318.679" gradientUnits="userSpaceOnUse">
<stop stop-color="#666666" stop-opacity="0"/>
<stop offset="0.9999" stop-color="#FF6E00" stop-opacity="0.35"/>
</linearGradient>
</defs>
</svg>
