<svg width="54" height="54" viewBox="0 0 54 54" fill="none" xmlns="http://www.w3.org/2000/svg">
<path d="M26.9998 10.125C26.1455 10.128 25.3059 10.3471 24.5591 10.762C23.8123 11.1768 23.1826 11.7739 22.7287 12.4976C21.9767 12.0561 21.1219 11.8198 20.2498 11.8125C17.4739 11.8125 15.1873 14.0991 15.1873 16.875V23.0445L14.9764 23.3078C14.8515 23.4529 14.7317 23.5862 14.6068 23.7296C13.7397 24.7385 12.9301 25.7954 12.1819 26.8954L11.6537 27.5805C10.9594 28.4954 10.49 29.5608 10.2834 30.6906C10.2564 30.8171 10.1974 30.9352 10.1771 31.0618C10.0309 32.1253 10.1154 33.2078 10.4249 34.2357C10.7345 35.2636 11.2618 36.2128 11.9709 37.0187L15.9787 41.5547C17.0851 42.8149 18.4477 43.8243 19.9756 44.5155C21.5034 45.2066 23.1612 45.5636 24.8381 45.5625H33.7498C40.2551 45.5625 45.5623 40.2553 45.5623 33.75V18.5625C45.5623 15.7866 43.2757 13.5 40.4998 13.5C39.597 13.5 38.76 13.7633 38.0209 14.1851C37.567 13.4614 36.9373 12.8643 36.1905 12.4495C35.4437 12.0346 34.6041 11.8155 33.7498 11.8125C32.847 11.8125 32.01 12.0758 31.2709 12.4976C30.817 11.7739 30.1873 11.1768 29.4405 10.762C28.6937 10.3471 27.8541 10.128 26.9998 10.125ZM26.9998 13.5C27.9549 13.5 28.6873 14.2324 28.6873 15.1875V18.8797C28.147 18.6787 27.5763 18.5714 26.9998 18.5625H25.3123V15.1875C25.3123 14.2324 26.0447 13.5 26.9998 13.5ZM20.2498 15.1875C21.2049 15.1875 21.9373 15.9199 21.9373 16.875V18.5625H19.5647L19.0905 19.0367C19.0905 19.0367 18.7074 19.4248 18.5623 19.5649V16.875C18.5623 15.9199 19.2947 15.1875 20.2498 15.1875ZM33.7498 15.1875C34.7049 15.1875 35.4373 15.9199 35.4373 16.875V21.9375C35.4373 22.8926 34.7049 23.625 33.7498 23.625C32.7947 23.625 32.0623 22.8926 32.0623 21.9375V16.875C32.0623 15.9199 32.7947 15.1875 33.7498 15.1875ZM40.4998 16.875C41.4549 16.875 42.1873 17.6074 42.1873 18.5625V21.9375C42.1873 22.8926 41.4549 23.625 40.4998 23.625C39.5447 23.625 38.8123 22.8926 38.8123 21.9375V18.5625C38.8123 17.6074 39.5447 16.875 40.4998 16.875ZM20.9872 21.9375H26.9998C27.9499 21.9375 28.6873 22.6766 28.6873 23.625C28.6873 24.5734 27.9482 25.3125 26.9998 25.3125H21.7264L21.2522 25.9453L17.2967 30.9555L19.9342 33.0649L23.0443 29.1617C23.6518 29.4452 24.3437 29.8671 25.1014 30.4813C26.9002 31.9444 28.6873 34.3372 28.6873 38.8125H32.0623C32.0623 33.9744 30.1301 30.6383 28.0022 28.5812C28.6708 28.4409 29.3045 28.1681 29.8659 27.7789C30.4273 27.3896 30.9051 26.8918 31.2709 26.3149C32.01 26.7367 32.847 27 33.7498 27C35.0424 27 36.2287 26.4937 37.1248 25.6821C38.0209 26.4921 39.2072 27 40.4998 27C41.0763 26.9911 41.647 26.8838 42.1873 26.6828V33.75C42.1873 38.4294 38.4292 42.1875 33.7498 42.1875H24.8381C23.6411 42.1918 22.4571 41.9398 21.3656 41.4485C20.2741 40.9571 19.3004 40.2379 18.51 39.339L14.5022 34.7524C14.1556 34.3671 13.8886 33.917 13.7166 33.4282C13.5446 32.9393 13.4709 32.4213 13.4998 31.9039C13.4998 31.8904 13.5454 31.779 13.5521 31.7469C13.5589 31.6929 13.5454 31.6406 13.5521 31.5883C13.6314 31.2188 13.8896 30.5083 14.4482 29.5836C14.5207 29.4654 14.6338 29.3338 14.7131 29.2157L17.192 25.9453C19.0567 23.7634 20.6109 22.2936 20.9872 21.9375Z" fill="#FF6723"/>
</svg>
