<svg width="54" height="54" viewBox="0 0 54 54" fill="none" xmlns="http://www.w3.org/2000/svg">
<path fill-rule="evenodd" clip-rule="evenodd" d="M31.7496 12.3118C31.7497 10.6034 32.3481 8.94891 33.4408 7.63558C34.5335 6.32225 36.0515 5.43298 37.7315 5.1221C39.4114 4.81122 41.1471 5.09836 42.6374 5.93369C44.1278 6.76902 45.2786 8.0998 45.8901 9.69506C46.5016 11.2903 46.5353 13.0493 45.9852 14.6668C45.4352 16.2843 44.3361 17.6581 42.8789 18.5499C41.4216 19.4416 39.6981 19.795 38.0075 19.5486C36.3169 19.3022 34.766 18.4716 33.6238 17.2011L27.5106 20.5356L20.6706 24.4438C21.6278 26.1266 21.8786 28.1204 21.3681 29.9878L33.6238 36.6726C34.8229 35.3404 36.4694 34.495 38.2508 34.2968C40.0321 34.0987 41.8242 34.5618 43.2866 35.598C44.7491 36.6342 45.78 38.1714 46.1837 39.9177C46.5873 41.664 46.3356 43.4977 45.4762 45.0706C44.6169 46.6435 43.2098 47.846 41.5222 48.4497C39.8346 49.0534 37.984 49.0164 36.322 48.3455C34.66 47.6746 33.3022 46.4167 32.5065 44.8107C31.7109 43.2046 31.5328 41.3623 32.0061 39.6336L19.7503 32.9511C18.8163 33.99 17.6042 34.7395 16.2575 35.1111C14.9108 35.4827 13.4859 35.4608 12.1512 35.0479C10.8166 34.635 9.62823 33.8484 8.72664 32.7812C7.82506 31.7141 7.24803 30.411 7.06384 29.0262C6.87965 27.6413 7.096 26.2327 7.6873 24.967C8.27859 23.7013 9.22008 22.6314 10.4004 21.884C11.5807 21.1366 12.9503 20.743 14.3473 20.7496C15.7444 20.7563 17.1102 21.163 18.2833 21.9216L25.8658 17.5881L32.0061 14.2378C31.8366 13.6098 31.7503 12.9623 31.7496 12.3118ZM39.0621 8.37433C38.0178 8.37433 37.0163 8.78917 36.2778 9.5276C35.5394 10.266 35.1246 11.2675 35.1246 12.3118C35.1246 13.3561 35.5394 14.3576 36.2778 15.0961C37.0163 15.8345 38.0178 16.2493 39.0621 16.2493C40.1064 16.2493 41.1079 15.8345 41.8463 15.0961C42.5847 14.3576 42.9996 13.3561 42.9996 12.3118C42.9996 11.2675 42.5847 10.266 41.8463 9.5276C41.1079 8.78917 40.1064 8.37433 39.0621 8.37433ZM14.3121 24.1243C13.2678 24.1243 12.2663 24.5392 11.5278 25.2776C10.7894 26.016 10.3746 27.0175 10.3746 28.0618C10.3746 29.1061 10.7894 30.1076 11.5278 30.8461C12.2663 31.5845 13.2678 31.9993 14.3121 31.9993C15.3564 31.9993 16.3579 31.5845 17.0963 30.8461C17.8347 30.1076 18.2496 29.1061 18.2496 28.0618C18.2496 27.0175 17.8347 26.016 17.0963 25.2776C16.3579 24.5392 15.3564 24.1243 14.3121 24.1243ZM35.1246 41.5618C35.1246 40.5175 35.5394 39.516 36.2778 38.7776C37.0163 38.0392 38.0178 37.6243 39.0621 37.6243C40.1064 37.6243 41.1079 38.0392 41.8463 38.7776C42.5847 39.516 42.9996 40.5175 42.9996 41.5618C42.9996 42.6061 42.5847 43.6076 41.8463 44.3461C41.1079 45.0845 40.1064 45.4993 39.0621 45.4993C38.0178 45.4993 37.0163 45.0845 36.2778 44.3461C35.5394 43.6076 35.1246 42.6061 35.1246 41.5618Z" fill="#FF6723"/>
</svg>
