<svg width="778" height="281" viewBox="0 0 778 281" fill="none" xmlns="http://www.w3.org/2000/svg">
<path d="M413.585 37.8589C520.6 64.0107 614.626 99.2314 680.133 135.014C712.893 152.909 738.468 170.918 754.971 187.964C771.515 205.054 778.722 220.941 775.366 234.673C772.01 248.406 758.288 259.179 735.727 266.713C713.222 274.227 682.224 278.41 644.903 279.179C570.276 280.717 470.603 268.603 363.588 242.451C256.573 216.299 162.545 181.078 97.0389 145.295C64.2793 127.4 38.7044 109.392 22.2019 92.3453C5.65792 75.2558 -1.54997 59.3678 1.80595 45.6351C5.162 31.9026 18.8849 21.1304 41.4459 13.5972C63.9506 6.08278 94.9484 1.89943 132.269 1.13034C206.896 -0.407531 306.57 11.7071 413.585 37.8589Z" stroke="url(#paint0_linear_763_1241)" stroke-opacity="0.5" stroke-width="2"/>
<defs>
<linearGradient id="paint0_linear_763_1241" x1="412.501" y1="42.2909" x2="363.35" y2="243.422" gradientUnits="userSpaceOnUse">
<stop stop-color="#CBCBCB" stop-opacity="0"/>
<stop offset="1" stop-color="#A7A6A6"/>
</linearGradient>
</defs>
</svg>
